HIERARCHY
ROOT Hips
{
    OFFSET 0.000000 0.000000 0.000000
    CHANNELS 6 Xposition Yposition Zposition Zrotation Xrotation Yrotation
    JOINT Spine
    {
        OFFSET -0.000000 7.856138 0.000000
        CHANNELS 3 Zrotation Xrotation Yrotation
        JOINT Spine1
        {
            OFFSET -0.000000 20.830866 0.000000
            CHANNELS 3 Zrotation Xrotation Yrotation
            JOINT Neck
            {
                OFFSET -0.000000 20.745317 1.885938
                CHANNELS 3 Zrotation Xrotation Yrotation
                JOINT Head
                {
                    OFFSET -0.000000 13.412918 -1.916131
                    CHANNELS 3 Zrotation Xrotation Yrotation
                    End Site
                    {
                        OFFSET -0.000000 23.951641 0.000000
                    }
                }
            }
            JOINT LeftShoulder
            {
                OFFSET 3.826675 19.078362 -0.073511
                CHANNELS 3 Zrotation Xrotation Yrotation
                JOINT LeftArm
                {
                    OFFSET 10.442133 0.000000 0.000000
                    CHANNELS 3 Zrotation Xrotation Yrotation
                    JOINT LeftForeArm
                    {
                        OFFSET 37.051945 0.000000 0.000000
                        CHANNELS 3 Zrotation Xrotation Yrotation
                        JOINT LeftHand
                        {
                            OFFSET 24.394852 0.000000 0.000000
                            CHANNELS 3 Zrotation Xrotation Yrotation
                            End Site
                            {
                                OFFSET 14.370985 0.000000 0.000000
                            }
                        }
                    }
                }
            }
            JOINT RightShoulder
            {
                OFFSET -3.827599 19.078362 -0.073511
                CHANNELS 3 Zrotation Xrotation Yrotation
                JOINT RightArm
                {
                    OFFSET -10.442133 0.000000 0.000000
                    CHANNELS 3 Zrotation Xrotation Yrotation
                    JOINT RightForeArm
                    {
                        OFFSET -37.051945 0.000000 0.000000
                        CHANNELS 3 Zrotation Xrotation Yrotation
                        JOINT RightHand
                        {
                            OFFSET -24.394852 0.000000 0.000000
                            CHANNELS 3 Zrotation Xrotation Yrotation
                            End Site
                            {
                                OFFSET -14.370985 0.000000 0.000000
                            }
                        }
                    }
                }
            }
        }
    }
    JOINT LeftUpLeg
    {
        OFFSET 9.580656 0.000000 0.000000
        CHANNELS 3 Zrotation Xrotation Yrotation
        JOINT LeftLeg
        {
            OFFSET -0.000000 -43.769192 0.000000
            CHANNELS 3 Zrotation Xrotation Yrotation
            JOINT LeftFoot
            {
                OFFSET -0.000000 -42.531967 0.000000
                CHANNELS 3 Zrotation Xrotation Yrotation
                JOINT LeftToeBase
                {
                    OFFSET -0.000000 -6.227426 14.370985
                    CHANNELS 3 Zrotation Xrotation Yrotation
                    End Site
                    {
                        OFFSET -0.000000 0.000000 3.832262
                    }
                }
            }
        }
    }
    JOINT RightUpLeg
    {
        OFFSET -9.580656 0.000000 0.000000
        CHANNELS 3 Zrotation Xrotation Yrotation
        JOINT RightLeg
        {
            OFFSET -0.000000 -43.769192 0.000000
            CHANNELS 3 Zrotation Xrotation Yrotation
            JOINT RightFoot
            {
                OFFSET -0.000000 -42.531967 0.000000
                CHANNELS 3 Zrotation Xrotation Yrotation
                JOINT RightToeBase
                {
                    OFFSET -0.000000 -6.227426 14.370985
                    CHANNELS 3 Zrotation Xrotation Yrotation
                    End Site
                    {
                        OFFSET -0.000000 0.000000 3.832262
                    }
                }
            }
        }
    }
}
MOTION
Frames:    8
Frame Time:    0.008333
-22.765038    87.210037    25.084805    -0.013593    3.606851    76.221222    -0.729122    -9.096756    6.261760    -0.127643    12.851392    6.334102    1.642975    4.792802    -1.882699    -3.634531    0.469366    -2.637887    -7.878689    15.822866    3.887817    -47.752350    58.196484    -20.052074    -3.146908    -18.597090    -31.282618    -10.782360    -20.842388    15.831532    1.204521    13.630924    0.705037    35.390846    54.907673    30.791595    -3.749954    -27.254135    22.041553    4.765128    -26.678059    -2.046351    1.900708    -20.717239    -1.350306    -15.328739    29.507120    8.375028    19.425163    -14.456235    26.243490    0.000000    0.000000    0.000000    -15.975055    -5.051438    -2.209171    2.749363    63.353432    -3.008431    5.720815    4.292174    -8.339596    0.000000    0.000000    0.000000    
-21.887306    87.231926    24.952217    -0.266844    3.723551    76.160202    -1.033744    -9.461661    5.890731    0.243704    13.170220    5.948119    1.469734    4.761678    -1.664822    -3.495421    0.307591    -2.378792    -8.032454    15.722975    4.039929    -47.557922    58.422112    -19.910820    -3.062076    -19.493320    -32.696224    -8.168857    -21.410892    15.970721    1.130971    13.535097    0.894585    35.758820    53.795273    30.528788    -4.194513    -24.859110    22.108120    7.234344    -24.205244    -1.612696    1.637472    -20.577751    -1.662967    -15.617300    29.801067    8.192163    19.723898    -14.925175    27.002184    0.000000    0.000000    0.000000    -15.935901    -6.999359    -2.300820    2.575829    65.144867    -3.311455    5.854620    3.577588    -7.810923    0.000000    0.000000    0.000000    
-21.004507    87.265320    24.852222    -0.458665    3.689348    76.235451    -1.443373    -9.478655    5.621400    0.778614    12.848755    5.653368    2.124393    5.014628    -1.485121    -4.250338    0.338109    -2.361236    -7.961978    15.957371    3.607216    -48.008247    58.243572    -19.353088    -2.722931    -20.123260    -33.634239    -5.891126    -21.668715    16.040245    1.576582    13.546247    0.682670    35.969414    53.257626    29.914173    -4.557714    -23.401051    22.332775    7.998098    -22.727116    -2.410498    1.472484    -20.307114    -1.955441    -15.798072    30.001839    8.114951    20.016254    -15.439211    27.488428    0.000000    0.000000    0.000000    -15.713531    -8.721984    -2.124648    3.260009    66.710960    -3.664041    6.092957    2.444500    -8.452962    0.000000    0.000000    0.000000    
-20.106178    87.315483    24.755659    -0.572961    3.600668    76.273552    -1.556952    -9.820728    5.287959    1.017794    13.561982    5.300667    2.302869    4.487265    -1.285259    -4.277879    0.379456    -2.185063    -7.745779    15.596018    3.668383    -47.691441    58.509892    -19.651609    -2.443236    -20.496620    -34.557247    -3.156402    -21.624050    16.140356    1.576367    13.043347    0.483474    36.319977    52.758324    29.644505    -4.605997    -22.354368    22.554052    7.777602    -21.704762    -3.221319    1.355765    -19.867819    -2.116832    -15.889462    30.151827    7.931148    20.286497    -15.972332    27.895231    0.000000    0.000000    0.000000    -15.454406    -10.446360    -1.876518    4.333984    68.137344    -4.741646    6.321725    2.027848    -8.763538    0.000000    0.000000    0.000000    
-19.209272    87.381538    24.666174    -0.634358    3.466901    76.386955    -1.599740    -9.644348    4.893106    1.171662    13.132847    4.893186    2.650771    5.024259    -1.099891    -4.504478    0.236584    -2.054308    -7.846073    15.798828    3.503098    -47.394798    58.508030    -19.539978    -1.964841    -20.495911    -35.082508    -0.163085    -21.098970    16.441759    1.984676    13.099723    0.717910    36.844200    52.438442    28.743811    -5.119324    -21.702076    22.328426    8.027198    -20.999989    -3.676545    1.239804    -19.331093    -2.216695    -15.904552    30.173410    7.668972    20.596447    -16.382198    28.302015    0.000000    0.000000    0.000000    -15.121480    -11.946367    -1.592637    5.616012    69.184036    -6.109629    5.599322    1.493522    -8.737525    0.000000    0.000000    0.000000    
-18.299799    87.450912    24.587379    -0.649221    3.289494    76.568466    -1.961161    -9.571015    4.666848    1.901293    13.084415    4.612971    3.125048    5.161284    -1.204276    -4.937336    0.174517    -2.271929    -7.789632    15.763094    2.954949    -47.181252    58.569359    -19.758669    -1.166151    -20.381844    -35.038017    1.666565    -20.509146    15.895715    2.229929    13.004228    0.209202    36.919609    52.606209    28.235437    -5.833622    -21.235378    22.284355    7.578795    -20.420757    -4.214978    1.109127    -18.687584    -2.206828    -15.682937    30.232231    7.311455    20.780684    -16.940905    28.439194    0.000000    0.000000    0.000000    -14.820437    -13.383427    -1.194502    7.975373    70.029877    -8.720317    6.071566    1.184108    -8.820594    0.000000    0.000000    0.000000    
-17.394835    87.538925    24.518187    -0.568248    3.058376    76.706924    -1.959593    -9.164422    4.338474    2.148492    12.588057    4.258536    3.260561    5.354882    -1.139633    -4.871623    0.448273    -2.192193    -7.964219    15.733008    2.642898    -46.594711    58.988834    -19.809658    -0.269881    -19.984364    -34.872822    3.418275    -19.633884    15.248178    2.594777    13.308867    0.343948    37.309635    52.343559    27.443199    -6.241843    -20.810266    22.147858    5.509534    -19.898249    -5.213289    1.018969    -17.856346    -2.083941    -15.396157    30.040628    7.109852    21.461905    -17.265406    28.474840    0.000000    0.000000    0.000000    -14.377294    -14.581964    -1.015241    9.406324    70.630760    -9.620689    5.980224    0.323825    -9.505210    0.000000    0.000000    0.000000    
-16.445236    87.655701    24.440346    -0.500300    2.897057    76.815041    -2.087496    -9.102261    4.051809    2.639289    12.660972    3.925138    3.311709    5.343896    -1.109846    -4.755592    0.692235    -2.140566    -8.001237    15.499739    2.309950    -45.752079    59.605637    -20.452934    0.932735    -19.102793    -34.325089    5.803241    -18.128256    14.535209    2.618659    13.409665    0.193902    37.587688    52.265022    26.954746    -6.464705    -20.455114    22.255051    2.270220    -19.379890    -6.563408    0.817109    -16.953978    -1.878451    -14.944370    29.752163    6.881835    21.141190    -17.833025    28.244020    0.000000    0.000000    0.000000    -14.059669    -15.768002    -0.495620    11.929158    70.797989    -12.133965    5.951063    -0.456577    -9.490029    0.000000    0.000000    0.000000    
